<svg width="40" height="40" viewBox="0 0 40 40" fill="none" xmlns="http://www.w3.org/2000/svg">
<g clip-path="url(#clip0_874721_1150)">
<path d="M40 20C40 25.5229 37.7614 30.5229 34.1421 34.1422C30.5228 37.7615 25.5228 40 20 40C14.4772 40 9.47715 37.7615 5.85786 34.1422C2.23858 30.5229 0 25.5229 0 20C0 14.4772 2.23858 9.47715 5.85786 5.85786C9.47715 2.23858 14.4772 0 20 0C25.5228 0 30.5228 2.23858 34.1421 5.85786C37.7614 9.47715 40 14.4772 40 20Z" fill="#D1541F"/>
<mask id="mask0_874721_1150" style="mask-type:luminance" maskUnits="userSpaceOnUse" x="7" y="12" width="26" height="16">
<path d="M33 12H7V28H33V12Z" fill="white"/>
</mask>
<g mask="url(#mask0_874721_1150)">
<path d="M32.2594 28L32.264 27.9991V20.4971C32.264 16.8271 31.5469 14 27.6524 14C25.7801 14 24.5238 15.1318 24.0108 16.205H23.9566V14.3426H20.264V27.9991H24.109V21.237C24.109 19.4565 24.4154 17.7348 26.4168 17.7348C28.3888 17.7348 28.4183 19.7667 28.4183 21.3511V28H32.2594Z" fill="#FDF8F4"/>
<path d="M8.26404 14H12.5523C12.5523 16.8599 12.5523 25.3789 12.5523 28H8.26404V14Z" fill="#FDF8F4"/>
<path d="M12.5523 28V25.3789L18.264 25.3789V28H12.5523Z" fill="#FDF8F4"/>
<path d="M12.5523 16.6211V14L18.264 14V16.6211H12.5523Z" fill="#FDF8F4"/>
<path d="M12.5523 22.1024V19.4813L18.264 19.4813V22.1024H12.5523Z" fill="#FDF8F4"/>
</g>
</g>
<defs>
<clipPath id="clip0_874721_1150">
<rect width="40" height="40" fill="white"/>
</clipPath>
</defs>
</svg>
